<svg id="google-icon" xmlns="http://www.w3.org/2000/svg" width="20.513" height="20.931" viewBox="0 0 20.513 20.931">
  <path id="Path_36424" data-name="Path 36424" d="M140.6,108.9a8.968,8.968,0,0,0-.221-2.14H130.55v3.884h5.768a5.114,5.114,0,0,1-2.14,3.4l-.02.13,3.107,2.407.215.021a10.233,10.233,0,0,0,3.116-7.7" transform="translate(-120.084 -98.202)" fill="#4285f4"/>
  <path id="Path_36425" data-name="Path 36425" d="M23.274,164.766a9.975,9.975,0,0,0,6.931-2.535l-3.3-2.558a6.194,6.194,0,0,1-3.628,1.047,6.3,6.3,0,0,1-5.954-4.349l-.123.01-3.231,2.5-.042.117a10.458,10.458,0,0,0,9.349,5.768" transform="translate(-12.809 -143.835)" fill="#34a853"/>
  <path id="Path_36426" data-name="Path 36426" d="M4.512,78.131a6.443,6.443,0,0,1-.349-2.07,6.77,6.77,0,0,1,.337-2.07l-.006-.139-3.271-2.54-.107.051a10.444,10.444,0,0,0,0,9.4l3.4-2.628" transform="translate(0 -65.595)" fill="#fbbc05"/>
  <path id="Path_36427" data-name="Path 36427" d="M23.274,4.047A5.8,5.8,0,0,1,27.321,5.6l2.954-2.884a10.055,10.055,0,0,0-7-2.721,10.458,10.458,0,0,0-9.349,5.768L17.309,8.4a6.326,6.326,0,0,1,5.965-4.349" transform="translate(-12.809)" fill="#eb4335"/>
</svg>
