<svg width="22" height="18" viewBox="0 0 22 18" fill="none" xmlns="http://www.w3.org/2000/svg">
<path d="M11.1018 12.7783V16.2874H3.23053C2.97664 16.2875 2.72522 16.2376 2.49062 16.1405C2.25602 16.0434 2.04286 15.9011 1.86329 15.7216C1.68372 15.5421 1.54127 15.329 1.44409 15.0944C1.3469 14.8599 1.29687 14.6085 1.29688 14.3546V3.56449C1.29687 3.3106 1.3469 3.0592 1.44409 2.82465C1.54127 2.59009 1.68372 2.37699 1.86329 2.1975C2.04286 2.01801 2.25602 1.87565 2.49062 1.77857C2.72522 1.68149 2.97664 1.6316 3.23053 1.63171H9.16812C9.68081 1.63171 10.1725 1.83532 10.5351 2.19777C10.8977 2.56021 11.1015 3.05181 11.1018 3.56449V9.90318" stroke="black" stroke-width="1.5" stroke-linecap="round" stroke-linejoin="round"/>
<path d="M11.1018 12.7783V16.2874H18.973C19.4857 16.2874 19.9773 16.0838 20.3397 15.7213C20.7022 15.3588 20.9058 14.8672 20.9058 14.3546V3.56449C20.9058 3.05189 20.7022 2.56029 20.3397 2.19782C19.9773 1.83535 19.4857 1.63171 18.973 1.63171H13.0346C12.522 1.63171 12.0304 1.83535 11.6679 2.19782C11.3054 2.56029 11.1018 3.05189 11.1018 3.56449V10.7789" stroke="black" stroke-width="1.5" stroke-linecap="round" stroke-linejoin="round"/>
</svg>
